<svg width="167" height="30" viewBox="0 0 167 30" fill="none" xmlns="http://www.w3.org/2000/svg">
<path d="M42.784 14.936C43.1893 14.936 43.5413 14.8853 43.84 14.784C44.144 14.6827 44.392 14.544 44.584 14.368C44.7813 14.1867 44.928 13.9733 45.024 13.728C45.12 13.4827 45.168 13.2133 45.168 12.92C45.168 12.3333 44.9733 11.8827 44.584 11.568C44.2 11.2533 43.6107 11.096 42.816 11.096H41.44V14.936H42.784ZM48.32 21H46.376C46.008 21 45.7413 20.856 45.576 20.568L43.144 16.864C43.0533 16.7253 42.952 16.6267 42.84 16.568C42.7333 16.5093 42.5733 16.48 42.36 16.48H41.44V21H39.288V9.432H42.816C43.6 9.432 44.272 9.51467 44.832 9.68C45.3973 9.84 45.8587 10.0667 46.216 10.36C46.5787 10.6533 46.8453 11.0053 47.016 11.416C47.1867 11.8213 47.272 12.2693 47.272 12.76C47.272 13.1493 47.2133 13.5173 47.096 13.864C46.984 14.2107 46.8187 14.5253 46.6 14.808C46.3867 15.0907 46.12 15.3387 45.8 15.552C45.4853 15.7653 45.1253 15.9333 44.72 16.056C44.8587 16.136 44.9867 16.232 45.104 16.344C45.2213 16.4507 45.328 16.5787 45.424 16.728L48.32 21ZM54.334 15.952C54.334 15.696 54.2967 15.456 54.222 15.232C54.1527 15.0027 54.046 14.8027 53.902 14.632C53.758 14.4613 53.574 14.328 53.35 14.232C53.1313 14.1307 52.8753 14.08 52.582 14.08C52.0113 14.08 51.5607 14.2427 51.23 14.568C50.9047 14.8933 50.6967 15.3547 50.606 15.952H54.334ZM50.566 17.144C50.598 17.5653 50.6727 17.9307 50.79 18.24C50.9073 18.544 51.062 18.7973 51.254 19C51.446 19.1973 51.6727 19.3467 51.934 19.448C52.2007 19.544 52.494 19.592 52.814 19.592C53.134 19.592 53.4087 19.5547 53.638 19.48C53.8727 19.4053 54.0753 19.3227 54.246 19.232C54.422 19.1413 54.574 19.0587 54.702 18.984C54.8353 18.9093 54.9633 18.872 55.086 18.872C55.2513 18.872 55.374 18.9333 55.454 19.056L56.022 19.776C55.8033 20.032 55.558 20.248 55.286 20.424C55.014 20.5947 54.7287 20.7333 54.43 20.84C54.1367 20.9413 53.8353 21.0133 53.526 21.056C53.222 21.0987 52.926 21.12 52.638 21.12C52.0673 21.12 51.5367 21.0267 51.046 20.84C50.5553 20.648 50.1287 20.368 49.766 20C49.4033 19.6267 49.118 19.168 48.91 18.624C48.702 18.0747 48.598 17.44 48.598 16.72C48.598 16.16 48.6887 15.6347 48.87 15.144C49.0513 14.648 49.31 14.2187 49.646 13.856C49.9873 13.488 50.4007 13.1973 50.886 12.984C51.3767 12.7707 51.9287 12.664 52.542 12.664C53.0593 12.664 53.5367 12.7467 53.974 12.912C54.4113 13.0773 54.7873 13.32 55.102 13.64C55.4167 13.9547 55.662 14.344 55.838 14.808C56.0193 15.2667 56.11 15.792 56.11 16.384C56.11 16.6827 56.078 16.8853 56.014 16.992C55.95 17.0933 55.8273 17.144 55.646 17.144H50.566ZM63.7929 14.528C63.7342 14.6027 63.6755 14.6613 63.6169 14.704C63.5635 14.7467 63.4835 14.768 63.3769 14.768C63.2755 14.768 63.1769 14.7387 63.0809 14.68C62.9849 14.616 62.8702 14.5467 62.7369 14.472C62.6035 14.392 62.4435 14.3227 62.2569 14.264C62.0755 14.2 61.8489 14.168 61.5769 14.168C61.2302 14.168 60.9262 14.232 60.6649 14.36C60.4035 14.4827 60.1849 14.6613 60.0089 14.896C59.8382 15.1307 59.7102 15.416 59.6249 15.752C59.5395 16.0827 59.4969 16.4587 59.4969 16.88C59.4969 17.3173 59.5422 17.7067 59.6329 18.048C59.7289 18.3893 59.8649 18.6773 60.0409 18.912C60.2169 19.1413 60.4302 19.3173 60.6809 19.44C60.9315 19.5573 61.2142 19.616 61.5289 19.616C61.8435 19.616 62.0969 19.5787 62.2889 19.504C62.4862 19.424 62.6515 19.3387 62.7849 19.248C62.9182 19.152 63.0329 19.0667 63.1289 18.992C63.2302 18.912 63.3422 18.872 63.4649 18.872C63.6249 18.872 63.7449 18.9333 63.8249 19.056L64.3929 19.776C64.1742 20.032 63.9369 20.248 63.6809 20.424C63.4249 20.5947 63.1582 20.7333 62.8809 20.84C62.6089 20.9413 62.3262 21.0133 62.0329 21.056C61.7449 21.0987 61.4569 21.12 61.1689 21.12C60.6622 21.12 60.1849 21.0267 59.7369 20.84C59.2889 20.648 58.8969 20.3707 58.5609 20.008C58.2249 19.6453 57.9582 19.2027 57.7609 18.68C57.5689 18.152 57.4729 17.552 57.4729 16.88C57.4729 16.2773 57.5582 15.72 57.7289 15.208C57.9049 14.6907 58.1609 14.2453 58.4969 13.872C58.8329 13.4933 59.2489 13.1973 59.7449 12.984C60.2409 12.7707 60.8115 12.664 61.4569 12.664C62.0702 12.664 62.6062 12.7627 63.0649 12.96C63.5289 13.1573 63.9449 13.44 64.3129 13.808L63.7929 14.528ZM67.9996 12.792V21H66.0156V12.792H67.9996ZM68.2716 10.4C68.2716 10.5707 68.237 10.7307 68.1676 10.88C68.0983 11.0293 68.005 11.16 67.8876 11.272C67.7756 11.384 67.6423 11.4747 67.4876 11.544C67.333 11.608 67.1676 11.64 66.9916 11.64C66.821 11.64 66.6583 11.608 66.5036 11.544C66.3543 11.4747 66.2236 11.384 66.1116 11.272C65.9996 11.16 65.909 11.0293 65.8396 10.88C65.7756 10.7307 65.7436 10.5707 65.7436 10.4C65.7436 10.224 65.7756 10.0587 65.8396 9.904C65.909 9.74933 65.9996 9.616 66.1116 9.504C66.2236 9.392 66.3543 9.304 66.5036 9.24C66.6583 9.17067 66.821 9.136 66.9916 9.136C67.1676 9.136 67.333 9.17067 67.4876 9.24C67.6423 9.304 67.7756 9.392 67.8876 9.504C68.005 9.616 68.0983 9.74933 68.1676 9.904C68.237 10.0587 68.2716 10.224 68.2716 10.4ZM72.3101 18.872C72.5341 19.144 72.7768 19.336 73.0381 19.448C73.3048 19.56 73.5928 19.616 73.9021 19.616C74.2008 19.616 74.4701 19.56 74.7101 19.448C74.9501 19.336 75.1528 19.1653 75.3181 18.936C75.4888 18.7067 75.6195 18.4187 75.7101 18.072C75.8008 17.72 75.8461 17.3067 75.8461 16.832C75.8461 16.352 75.8061 15.9467 75.7261 15.616C75.6515 15.28 75.5421 15.008 75.3981 14.8C75.2541 14.592 75.0781 14.44 74.8701 14.344C74.6675 14.248 74.4355 14.2 74.1741 14.2C73.7635 14.2 73.4141 14.288 73.1261 14.464C72.8381 14.6347 72.5661 14.8773 72.3101 15.192V18.872ZM72.2061 13.912C72.5421 13.5333 72.9235 13.2267 73.3501 12.992C73.7768 12.7573 74.2781 12.64 74.8541 12.64C75.3021 12.64 75.7101 12.7333 76.0781 12.92C76.4515 13.1067 76.7715 13.3787 77.0381 13.736C77.3101 14.088 77.5181 14.5253 77.6621 15.048C77.8115 15.5653 77.8861 16.16 77.8861 16.832C77.8861 17.4453 77.8035 18.0133 77.6381 18.536C77.4728 19.0587 77.2355 19.512 76.9261 19.896C76.6221 20.28 76.2515 20.5813 75.8141 20.8C75.3821 21.0133 74.8968 21.12 74.3581 21.12C73.8995 21.12 73.5075 21.0507 73.1821 20.912C72.8568 20.768 72.5661 20.5707 72.3101 20.32V23.68H70.3341V12.792H71.5421C71.7981 12.792 71.9661 12.912 72.0461 13.152L72.2061 13.912ZM85.0359 15.952C85.0359 15.696 84.9985 15.456 84.9239 15.232C84.8545 15.0027 84.7479 14.8027 84.6039 14.632C84.4599 14.4613 84.2759 14.328 84.0519 14.232C83.8332 14.1307 83.5772 14.08 83.2839 14.08C82.7132 14.08 82.2625 14.2427 81.9319 14.568C81.6065 14.8933 81.3985 15.3547 81.3079 15.952H85.0359ZM81.2679 17.144C81.2999 17.5653 81.3745 17.9307 81.4919 18.24C81.6092 18.544 81.7639 18.7973 81.9559 19C82.1479 19.1973 82.3745 19.3467 82.6359 19.448C82.9025 19.544 83.1959 19.592 83.5159 19.592C83.8359 19.592 84.1105 19.5547 84.3399 19.48C84.5745 19.4053 84.7772 19.3227 84.9479 19.232C85.1239 19.1413 85.2759 19.0587 85.4039 18.984C85.5372 18.9093 85.6652 18.872 85.7879 18.872C85.9532 18.872 86.0759 18.9333 86.1559 19.056L86.7239 19.776C86.5052 20.032 86.2599 20.248 85.9879 20.424C85.7159 20.5947 85.4305 20.7333 85.1319 20.84C84.8385 20.9413 84.5372 21.0133 84.2279 21.056C83.9239 21.0987 83.6279 21.12 83.3399 21.12C82.7692 21.12 82.2385 21.0267 81.7479 20.84C81.2572 20.648 80.8305 20.368 80.4679 20C80.1052 19.6267 79.8199 19.168 79.6119 18.624C79.4039 18.0747 79.2999 17.44 79.2999 16.72C79.2999 16.16 79.3905 15.6347 79.5719 15.144C79.7532 14.648 80.0119 14.2187 80.3479 13.856C80.6892 13.488 81.1025 13.1973 81.5879 12.984C82.0785 12.7707 82.6305 12.664 83.2439 12.664C83.7612 12.664 84.2385 12.7467 84.6759 12.912C85.1132 13.0773 85.4892 13.32 85.8039 13.64C86.1185 13.9547 86.3639 14.344 86.5399 14.808C86.7212 15.2667 86.8119 15.792 86.8119 16.384C86.8119 16.6827 86.7799 16.8853 86.7159 16.992C86.6519 17.0933 86.5292 17.144 86.3479 17.144H81.2679ZM93.6227 14.392C93.5694 14.4773 93.5134 14.5387 93.4547 14.576C93.3961 14.608 93.3214 14.624 93.2307 14.624C93.1347 14.624 93.0307 14.5973 92.9187 14.544C92.8121 14.4907 92.6867 14.432 92.5427 14.368C92.3987 14.2987 92.2334 14.2373 92.0467 14.184C91.8654 14.1307 91.6494 14.104 91.3987 14.104C91.0094 14.104 90.7027 14.1867 90.4787 14.352C90.2601 14.5173 90.1507 14.7333 90.1507 15C90.1507 15.176 90.2067 15.3253 90.3187 15.448C90.4361 15.5653 90.5881 15.6693 90.7747 15.76C90.9667 15.8507 91.1827 15.9333 91.4227 16.008C91.6627 16.0773 91.9054 16.1547 92.1507 16.24C92.4014 16.3253 92.6467 16.424 92.8867 16.536C93.1267 16.6427 93.3401 16.7813 93.5267 16.952C93.7187 17.1173 93.8707 17.3173 93.9827 17.552C94.1001 17.7867 94.1587 18.0693 94.1587 18.4C94.1587 18.7947 94.0867 19.16 93.9427 19.496C93.8041 19.8267 93.5961 20.1147 93.3187 20.36C93.0414 20.6 92.6974 20.7893 92.2867 20.928C91.8814 21.0613 91.4121 21.128 90.8787 21.128C90.5961 21.128 90.3187 21.1013 90.0467 21.048C89.7801 21 89.5214 20.9307 89.2707 20.84C89.0254 20.7493 88.7961 20.6427 88.5827 20.52C88.3747 20.3973 88.1907 20.264 88.0307 20.12L88.4867 19.368C88.5454 19.2773 88.6147 19.208 88.6947 19.16C88.7747 19.112 88.8761 19.088 88.9987 19.088C89.1214 19.088 89.2361 19.1227 89.3427 19.192C89.4547 19.2613 89.5827 19.336 89.7267 19.416C89.8707 19.496 90.0387 19.5707 90.2307 19.64C90.4281 19.7093 90.6761 19.744 90.9747 19.744C91.2094 19.744 91.4094 19.7173 91.5747 19.664C91.7454 19.6053 91.8841 19.5307 91.9907 19.44C92.1027 19.3493 92.1827 19.2453 92.2307 19.128C92.2841 19.0053 92.3107 18.88 92.3107 18.752C92.3107 18.56 92.2521 18.4027 92.1347 18.28C92.0227 18.1573 91.8707 18.0507 91.6787 17.96C91.4921 17.8693 91.2761 17.7893 91.0307 17.72C90.7907 17.6453 90.5427 17.5653 90.2867 17.48C90.0361 17.3947 89.7881 17.296 89.5427 17.184C89.3027 17.0667 89.0867 16.92 88.8947 16.744C88.7081 16.568 88.5561 16.352 88.4387 16.096C88.3267 15.84 88.2707 15.5307 88.2707 15.168C88.2707 14.832 88.3374 14.512 88.4707 14.208C88.6041 13.904 88.7987 13.64 89.0547 13.416C89.3161 13.1867 89.6387 13.0053 90.0227 12.872C90.4121 12.7333 90.8601 12.664 91.3667 12.664C91.9321 12.664 92.4467 12.7573 92.9107 12.944C93.3747 13.1307 93.7614 13.376 94.0707 13.68L93.6227 14.392ZM98.8879 16.696C99.1332 16.696 99.3465 16.664 99.5279 16.6C99.7092 16.5307 99.8585 16.4373 99.9759 16.32C100.099 16.2027 100.189 16.0613 100.248 15.896C100.312 15.7307 100.344 15.5493 100.344 15.352C100.344 14.9467 100.221 14.6267 99.9759 14.392C99.7359 14.152 99.3732 14.032 98.8879 14.032C98.4025 14.032 98.0372 14.152 97.7919 14.392C97.5519 14.6267 97.4319 14.9467 97.4319 15.352C97.4319 15.544 97.4612 15.7227 97.5199 15.888C97.5839 16.0533 97.6745 16.1973 97.7919 16.32C97.9145 16.4373 98.0665 16.5307 98.2479 16.6C98.4345 16.664 98.6479 16.696 98.8879 16.696ZM101.12 21.368C101.12 21.208 101.072 21.0773 100.976 20.976C100.88 20.8747 100.749 20.7973 100.584 20.744C100.419 20.6853 100.224 20.6427 99.9999 20.616C99.7812 20.5893 99.5465 20.5707 99.2959 20.56C99.0505 20.544 98.7945 20.5307 98.5279 20.52C98.2665 20.5093 98.0105 20.488 97.7599 20.456C97.5412 20.5787 97.3625 20.7227 97.2239 20.888C97.0905 21.0533 97.0239 21.2453 97.0239 21.464C97.0239 21.608 97.0585 21.7413 97.1279 21.864C97.2025 21.992 97.3172 22.1013 97.4719 22.192C97.6319 22.2827 97.8372 22.352 98.0879 22.4C98.3385 22.4533 98.6452 22.48 99.0079 22.48C99.3759 22.48 99.6932 22.4507 99.9599 22.392C100.227 22.3387 100.445 22.2613 100.616 22.16C100.792 22.064 100.92 21.9467 101 21.808C101.08 21.6747 101.12 21.528 101.12 21.368ZM103.088 13.072V13.808C103.088 14.0427 102.947 14.1867 102.664 14.24L101.928 14.376C102.04 14.6587 102.096 14.968 102.096 15.304C102.096 15.7093 102.013 16.0773 101.848 16.408C101.688 16.7333 101.464 17.0107 101.176 17.24C100.888 17.4693 100.547 17.648 100.152 17.776C99.7625 17.8987 99.3412 17.96 98.8879 17.96C98.7279 17.96 98.5732 17.952 98.4239 17.936C98.2745 17.92 98.1279 17.8987 97.9839 17.872C97.7279 18.0267 97.5999 18.2 97.5999 18.392C97.5999 18.5573 97.6745 18.68 97.8239 18.76C97.9785 18.8347 98.1812 18.888 98.4319 18.92C98.6825 18.952 98.9679 18.9733 99.2879 18.984C99.6079 18.9893 99.9359 19.0053 100.272 19.032C100.608 19.0587 100.936 19.1067 101.256 19.176C101.576 19.24 101.861 19.344 102.112 19.488C102.363 19.632 102.563 19.8293 102.712 20.08C102.867 20.3253 102.944 20.6427 102.944 21.032C102.944 21.3947 102.853 21.7467 102.672 22.088C102.496 22.4293 102.237 22.7333 101.896 23C101.56 23.2667 101.144 23.48 100.648 23.64C100.157 23.8053 99.5972 23.888 98.9679 23.888C98.3492 23.888 97.8105 23.8267 97.3519 23.704C96.8932 23.5867 96.5119 23.4267 96.2079 23.224C95.9039 23.0267 95.6772 22.7973 95.5279 22.536C95.3785 22.2747 95.3039 22.0027 95.3039 21.72C95.3039 21.336 95.4185 21.016 95.6479 20.76C95.8825 20.4987 96.2025 20.2907 96.6079 20.136C96.3892 20.024 96.2159 19.8747 96.0879 19.688C95.9599 19.5013 95.8959 19.256 95.8959 18.952C95.8959 18.8293 95.9172 18.704 95.9599 18.576C96.0079 18.4427 96.0745 18.312 96.1599 18.184C96.2505 18.056 96.3625 17.936 96.4959 17.824C96.6292 17.7067 96.7865 17.6027 96.9679 17.512C96.5519 17.288 96.2239 16.9893 95.9839 16.616C95.7492 16.2427 95.6319 15.8053 95.6319 15.304C95.6319 14.8987 95.7119 14.5333 95.8719 14.208C96.0372 13.8773 96.2639 13.5973 96.5519 13.368C96.8452 13.1333 97.1892 12.9547 97.5839 12.832C97.9839 12.7093 98.4185 12.648 98.8879 12.648C99.2399 12.648 99.5705 12.6853 99.8799 12.76C100.189 12.8293 100.472 12.9333 100.728 13.072H103.088ZM109.808 15.952C109.808 15.696 109.771 15.456 109.696 15.232C109.627 15.0027 109.52 14.8027 109.376 14.632C109.232 14.4613 109.048 14.328 108.824 14.232C108.606 14.1307 108.35 14.08 108.056 14.08C107.486 14.08 107.035 14.2427 106.704 14.568C106.379 14.8933 106.171 15.3547 106.08 15.952H109.808ZM106.04 17.144C106.072 17.5653 106.147 17.9307 106.264 18.24C106.382 18.544 106.536 18.7973 106.728 19C106.92 19.1973 107.147 19.3467 107.408 19.448C107.675 19.544 107.968 19.592 108.288 19.592C108.608 19.592 108.883 19.5547 109.112 19.48C109.347 19.4053 109.55 19.3227 109.72 19.232C109.896 19.1413 110.048 19.0587 110.176 18.984C110.31 18.9093 110.438 18.872 110.56 18.872C110.726 18.872 110.848 18.9333 110.928 19.056L111.496 19.776C111.278 20.032 111.032 20.248 110.76 20.424C110.488 20.5947 110.203 20.7333 109.904 20.84C109.611 20.9413 109.31 21.0133 109 21.056C108.696 21.0987 108.4 21.12 108.112 21.12C107.542 21.12 107.011 21.0267 106.52 20.84C106.03 20.648 105.603 20.368 105.24 20C104.878 19.6267 104.592 19.168 104.384 18.624C104.176 18.0747 104.072 17.44 104.072 16.72C104.072 16.16 104.163 15.6347 104.344 15.144C104.526 14.648 104.784 14.2187 105.12 13.856C105.462 13.488 105.875 13.1973 106.36 12.984C106.851 12.7707 107.403 12.664 108.016 12.664C108.534 12.664 109.011 12.7467 109.448 12.912C109.886 13.0773 110.262 13.32 110.576 13.64C110.891 13.9547 111.136 14.344 111.312 14.808C111.494 15.2667 111.584 15.792 111.584 16.384C111.584 16.6827 111.552 16.8853 111.488 16.992C111.424 17.0933 111.302 17.144 111.12 17.144H106.04ZM115.235 13.8C115.401 13.6347 115.574 13.4827 115.755 13.344C115.942 13.2 116.137 13.08 116.339 12.984C116.547 12.8827 116.769 12.8053 117.003 12.752C117.238 12.6933 117.494 12.664 117.771 12.664C118.219 12.664 118.617 12.7413 118.963 12.896C119.31 13.0453 119.598 13.2587 119.827 13.536C120.062 13.808 120.238 14.136 120.355 14.52C120.478 14.8987 120.539 15.3173 120.539 15.776V21H118.563V15.776C118.563 15.2747 118.449 14.888 118.219 14.616C117.99 14.3387 117.641 14.2 117.171 14.2C116.83 14.2 116.51 14.2773 116.211 14.432C115.913 14.5867 115.63 14.7973 115.363 15.064V21H113.387V12.792H114.595C114.851 12.792 115.019 12.912 115.099 13.152L115.235 13.8ZM128.026 15.952C128.026 15.696 127.989 15.456 127.914 15.232C127.845 15.0027 127.738 14.8027 127.594 14.632C127.45 14.4613 127.266 14.328 127.042 14.232C126.824 14.1307 126.568 14.08 126.274 14.08C125.704 14.08 125.253 14.2427 124.922 14.568C124.597 14.8933 124.389 15.3547 124.298 15.952H128.026ZM124.258 17.144C124.29 17.5653 124.365 17.9307 124.482 18.24C124.6 18.544 124.754 18.7973 124.946 19C125.138 19.1973 125.365 19.3467 125.626 19.448C125.893 19.544 126.186 19.592 126.506 19.592C126.826 19.592 127.101 19.5547 127.33 19.48C127.565 19.4053 127.768 19.3227 127.938 19.232C128.114 19.1413 128.266 19.0587 128.394 18.984C128.528 18.9093 128.656 18.872 128.778 18.872C128.944 18.872 129.066 18.9333 129.146 19.056L129.714 19.776C129.496 20.032 129.25 20.248 128.978 20.424C128.706 20.5947 128.421 20.7333 128.122 20.84C127.829 20.9413 127.528 21.0133 127.218 21.056C126.914 21.0987 126.618 21.12 126.33 21.12C125.76 21.12 125.229 21.0267 124.738 20.84C124.248 20.648 123.821 20.368 123.458 20C123.096 19.6267 122.81 19.168 122.602 18.624C122.394 18.0747 122.29 17.44 122.29 16.72C122.29 16.16 122.381 15.6347 122.562 15.144C122.744 14.648 123.002 14.2187 123.338 13.856C123.68 13.488 124.093 13.1973 124.578 12.984C125.069 12.7707 125.621 12.664 126.234 12.664C126.752 12.664 127.229 12.7467 127.666 12.912C128.104 13.0773 128.48 13.32 128.794 13.64C129.109 13.9547 129.354 14.344 129.53 14.808C129.712 15.2667 129.802 15.792 129.802 16.384C129.802 16.6827 129.77 16.8853 129.706 16.992C129.642 17.0933 129.52 17.144 129.338 17.144H124.258ZM133.469 14.216C133.725 13.7253 134.029 13.3413 134.381 13.064C134.733 12.7813 135.149 12.64 135.629 12.64C136.008 12.64 136.312 12.7227 136.541 12.888L136.413 14.368C136.387 14.464 136.347 14.5333 136.293 14.576C136.245 14.6133 136.179 14.632 136.093 14.632C136.013 14.632 135.893 14.6187 135.733 14.592C135.579 14.5653 135.427 14.552 135.277 14.552C135.059 14.552 134.864 14.584 134.693 14.648C134.523 14.712 134.368 14.8053 134.229 14.928C134.096 15.0453 133.976 15.1893 133.869 15.36C133.768 15.5307 133.672 15.7253 133.581 15.944V21H131.605V12.792H132.765C132.968 12.792 133.109 12.8293 133.189 12.904C133.269 12.9733 133.323 13.1013 133.349 13.288L133.469 14.216ZM142.121 17.496C141.55 17.5227 141.07 17.5733 140.681 17.648C140.291 17.7173 139.979 17.808 139.745 17.92C139.51 18.032 139.342 18.1627 139.241 18.312C139.139 18.4613 139.089 18.624 139.089 18.8C139.089 19.1467 139.19 19.3947 139.393 19.544C139.601 19.6933 139.87 19.768 140.201 19.768C140.606 19.768 140.955 19.696 141.249 19.552C141.547 19.4027 141.838 19.1787 142.121 18.88V17.496ZM137.593 13.936C138.537 13.072 139.673 12.64 141.001 12.64C141.481 12.64 141.91 12.72 142.289 12.88C142.667 13.0347 142.987 13.2533 143.249 13.536C143.51 13.8133 143.707 14.1467 143.841 14.536C143.979 14.9253 144.049 15.352 144.049 15.816V21H143.153C142.966 21 142.822 20.9733 142.721 20.92C142.619 20.8613 142.539 20.7467 142.481 20.576L142.305 19.984C142.097 20.1707 141.894 20.336 141.697 20.48C141.499 20.6187 141.294 20.736 141.081 20.832C140.867 20.928 140.638 21 140.393 21.048C140.153 21.1013 139.886 21.128 139.593 21.128C139.246 21.128 138.926 21.0827 138.633 20.992C138.339 20.896 138.086 20.7547 137.873 20.568C137.659 20.3813 137.494 20.1493 137.377 19.872C137.259 19.5947 137.201 19.272 137.201 18.904C137.201 18.696 137.235 18.4907 137.305 18.288C137.374 18.08 137.486 17.8827 137.641 17.696C137.801 17.5093 138.006 17.3333 138.257 17.168C138.507 17.0027 138.814 16.8587 139.177 16.736C139.545 16.6133 139.971 16.5147 140.457 16.44C140.942 16.36 141.497 16.312 142.121 16.296V15.816C142.121 15.2667 142.003 14.8613 141.769 14.6C141.534 14.3333 141.195 14.2 140.753 14.2C140.433 14.2 140.166 14.2373 139.953 14.312C139.745 14.3867 139.561 14.472 139.401 14.568C139.241 14.6587 139.094 14.7413 138.961 14.816C138.833 14.8907 138.689 14.928 138.529 14.928C138.39 14.928 138.273 14.8933 138.177 14.824C138.081 14.7493 138.003 14.664 137.945 14.568L137.593 13.936ZM148.856 21.128C148.142 21.128 147.592 20.928 147.208 20.528C146.83 20.1227 146.64 19.5653 146.64 18.856V14.272H145.8C145.694 14.272 145.603 14.2373 145.528 14.168C145.454 14.0987 145.416 13.9947 145.416 13.856V13.072L146.736 12.856L147.152 10.616C147.179 10.5093 147.23 10.4267 147.304 10.368C147.379 10.3093 147.475 10.28 147.592 10.28H148.616V12.864H150.808V14.272H148.616V18.72C148.616 18.976 148.678 19.176 148.8 19.32C148.928 19.464 149.102 19.536 149.32 19.536C149.443 19.536 149.544 19.5227 149.624 19.496C149.71 19.464 149.782 19.432 149.84 19.4C149.904 19.368 149.96 19.3387 150.008 19.312C150.056 19.28 150.104 19.264 150.152 19.264C150.211 19.264 150.259 19.28 150.296 19.312C150.334 19.3387 150.374 19.3813 150.416 19.44L151.008 20.4C150.72 20.64 150.39 20.8213 150.016 20.944C149.643 21.0667 149.256 21.128 148.856 21.128ZM155.963 12.664C156.571 12.664 157.123 12.7627 157.619 12.96C158.12 13.1573 158.547 13.4373 158.899 13.8C159.256 14.1627 159.531 14.6053 159.723 15.128C159.915 15.6507 160.011 16.2347 160.011 16.88C160.011 17.5307 159.915 18.1173 159.723 18.64C159.531 19.1627 159.256 19.608 158.899 19.976C158.547 20.344 158.12 20.6267 157.619 20.824C157.123 21.0213 156.571 21.12 155.963 21.12C155.35 21.12 154.792 21.0213 154.291 20.824C153.79 20.6267 153.36 20.344 153.003 19.976C152.651 19.608 152.376 19.1627 152.179 18.64C151.987 18.1173 151.891 17.5307 151.891 16.88C151.891 16.2347 151.987 15.6507 152.179 15.128C152.376 14.6053 152.651 14.1627 153.003 13.8C153.36 13.4373 153.79 13.1573 154.291 12.96C154.792 12.7627 155.35 12.664 155.963 12.664ZM155.963 19.6C156.646 19.6 157.15 19.3707 157.475 18.912C157.806 18.4533 157.971 17.7813 157.971 16.896C157.971 16.0107 157.806 15.336 157.475 14.872C157.15 14.408 156.646 14.176 155.963 14.176C155.27 14.176 154.755 14.4107 154.419 14.88C154.088 15.344 153.923 16.016 153.923 16.896C153.923 17.776 154.088 18.448 154.419 18.912C154.755 19.3707 155.27 19.6 155.963 19.6ZM163.703 14.216C163.959 13.7253 164.263 13.3413 164.615 13.064C164.967 12.7813 165.383 12.64 165.863 12.64C166.241 12.64 166.545 12.7227 166.775 12.888L166.647 14.368C166.62 14.464 166.58 14.5333 166.527 14.576C166.479 14.6133 166.412 14.632 166.327 14.632C166.247 14.632 166.127 14.6187 165.967 14.592C165.812 14.5653 165.66 14.552 165.511 14.552C165.292 14.552 165.097 14.584 164.927 14.648C164.756 14.712 164.601 14.8053 164.463 14.928C164.329 15.0453 164.209 15.1893 164.103 15.36C164.001 15.5307 163.905 15.7253 163.815 15.944V21H161.839V12.792H162.999C163.201 12.792 163.343 12.8293 163.423 12.904C163.503 12.9733 163.556 13.1013 163.583 13.288L163.703 14.216Z" fill="#D50024"/>
<g clip-path="url(#clip0_222_671)">
<g opacity="0.98">
<path d="M30 15C30 23.2838 23.2838 30 15 30C6.71625 30 0 23.2838 0 15C0 6.71625 6.71625 0 15 0C23.2838 0 30 6.71625 30 15Z" fill="#D50024"/>
<path d="M11.566 7.73251C11.4104 7.73251 11.2538 7.88908 11.2538 8.12345C11.2538 8.28001 11.4104 8.43564 11.566 8.43564C11.8004 8.43564 12.0348 8.67001 12.0348 8.90439C12.0348 9.13876 11.8004 9.37314 11.566 9.37314H11.4882C10.8629 9.37314 10.3941 9.84189 10.3941 10.4681C10.3941 11.0925 10.8629 11.5622 11.4882 11.5622C11.7226 11.5622 11.957 11.7966 11.957 12.031C11.957 12.2653 11.7226 12.4997 11.4882 12.4997C11.4073 12.5054 11.3311 12.5401 11.2738 12.5975C11.2164 12.6548 11.1817 12.731 11.176 12.8119C11.176 12.9685 11.3316 13.125 11.4882 13.125C12.1135 13.125 12.5823 12.6563 12.5823 12.031C12.5823 11.4056 12.1135 10.9369 11.4882 10.9369H11.4104C11.176 10.9369 10.9416 10.7025 10.9416 10.4681C10.9416 10.2338 11.0973 9.99939 11.3316 9.99939H11.4104C12.0348 9.99939 12.5045 9.53064 12.5045 8.90533C12.5045 8.28001 12.1913 7.73345 11.567 7.73345L11.566 7.73251ZM14.4573 7.73251C14.3016 7.73251 14.1451 7.88908 14.2229 8.12345C14.2229 8.28001 14.3795 8.43564 14.536 8.43564C14.7704 8.43564 15.0048 8.67001 15.0048 8.90439C15.0048 9.13876 14.7704 9.37314 14.536 9.37314H14.4573C13.8329 9.37314 13.3632 9.84189 13.3632 10.4681C13.3632 11.0925 13.832 11.5622 14.4573 11.5622C14.6916 11.5622 14.926 11.7966 14.926 12.031C14.926 12.2653 14.6916 12.4997 14.4573 12.4997C14.3763 12.5054 14.3002 12.5401 14.2428 12.5975C14.1855 12.6548 14.1508 12.731 14.1451 12.8119C14.1451 12.9685 14.3016 13.125 14.4573 13.125C15.0826 13.125 15.5513 12.6563 15.5513 12.031C15.5513 11.4056 15.0826 10.9369 14.4573 10.9369H14.3795C14.1451 10.9369 13.9107 10.7025 13.9107 10.4681C13.9107 10.2338 14.0673 9.99939 14.3795 9.99939H14.4573C15.0826 9.99939 15.5513 9.53064 15.5513 8.90533C15.5513 8.28001 15.1613 7.73251 14.4573 7.73251ZM17.5829 7.73251C17.4273 7.73251 17.2707 7.88908 17.3485 8.12345C17.3485 8.28001 17.5051 8.43564 17.6616 8.43564C17.896 8.43564 18.1304 8.67001 18.1304 8.90439C18.1304 9.13876 17.896 9.37314 17.6616 9.37314H17.5829C16.9585 9.37314 16.4898 9.84189 16.4898 10.4681C16.4898 11.0925 16.9585 11.5622 17.5829 11.5622C17.8173 11.5622 18.0516 11.7966 18.0516 12.031C18.0516 12.2653 17.8173 12.4997 17.5829 12.4997C17.502 12.5054 17.4258 12.5401 17.3685 12.5975C17.3111 12.6548 17.2764 12.731 17.2707 12.8119C17.2707 12.9685 17.4273 13.125 17.5829 13.125C18.2082 13.125 18.677 12.6563 18.677 12.031C18.677 11.4056 18.2082 10.9369 17.5829 10.9369H17.5051C17.2707 10.9369 17.0363 10.7025 17.0363 10.4681C17.0363 10.2338 17.2707 9.99939 17.5051 9.99939H17.6616C18.287 9.99939 18.7557 9.53064 18.7557 8.90533C18.7557 8.28001 18.287 7.73345 17.5838 7.73345C17.6616 7.73345 17.6616 7.73345 17.5838 7.73345L17.5829 7.73251ZM22.741 9.21751C22.5845 9.21751 22.4279 9.21751 22.3501 9.29533C21.7248 9.45189 20.9438 9.99845 20.3963 11.0925C19.771 12.4988 19.1457 13.0463 18.677 13.3594C18.4426 13.4372 18.287 13.515 18.0526 13.5938C17.6616 13.6716 17.3495 13.6716 16.8807 13.6716H7.50195C7.34539 13.7494 7.26758 13.8281 7.26758 13.9838V15.391C7.89289 17.5791 9.4557 19.4541 11.5651 20.3128V21.9553C11.5651 22.1119 11.7216 22.2685 11.8782 22.2685H17.5041C17.5854 22.263 17.6619 22.2282 17.7195 22.1706C17.777 22.1131 17.8118 22.0366 17.8173 21.9553V20.3147C19.7701 19.455 21.4116 17.6578 22.036 15.3919C22.036 15.3131 22.1148 15.3131 22.1148 15.2353V13.9847C22.1091 13.9036 22.0742 13.8274 22.0167 13.77C21.9591 13.7126 21.8827 13.678 21.8016 13.6725H19.8488C20.3954 13.3603 20.7863 12.9694 21.0985 12.5785C21.8804 11.641 22.3491 10.7813 24.0685 10.6247H25.006C25.1626 10.7035 25.3182 10.6247 25.397 10.5469C25.4321 10.4631 25.4356 10.3693 25.4068 10.2831C25.378 10.1968 25.3189 10.124 25.2404 10.0781C24.7716 9.76501 23.7554 9.06189 22.7401 9.21845L22.741 9.21751ZM7.97164 14.2969H21.647V14.9222H7.97164V14.2969Z" fill="white"/>
</g>
</g>
<defs>
<clipPath id="clip0_222_671">
<rect width="30" height="30" fill="white"/>
</clipPath>
</defs>
</svg>
